<?xml version="1.0" encoding="utf-8"?>
<!-- Generator: Adobe Illustrator 28.0.0, SVG Export Plug-In . SVG Version: 6.00 Build 0)  -->
<svg version="1.1" id="Layer_1" xmlns="http://www.w3.org/2000/svg" xmlns:xlink="http://www.w3.org/1999/xlink" x="0px" y="0px"
	 viewBox="0 0 2078.7 890.5" style="enable-background:new 0 0 2078.7 890.5;" xml:space="preserve">
<style type="text/css">
	.st0{fill:#63666A;}
	.st1{fill:#671E75;}
	.st2{fill:#BE98BE;}
</style>
<g id="Symbols">
	<g id="Christus-Logo-2020-2">
		<g>
			<path id="Path" class="st0" d="M777.3,637.7v-3.6c7.5-0.9,12.2-1.8,14.1-3.6c1.9-1.8,2.8-6.3,2.8-14.4v-78.4
				c0-6.3-0.9-10.8-2.8-12.6c-1.9-1.8-6.6-2.7-13.1-3.6v-3.6h52.6v3.6c-6.6,0.9-11.3,1.8-13.1,3.6c-1.9,1.8-2.8,6.3-2.8,12.6v35.1
				h57.3v-35.1c0-6.3-0.9-10.8-2.8-12.6c-1.9-1.8-6.6-2.7-13.1-3.6v-3.6h52.6v3.6c-6.6,0.9-11.3,1.8-13.1,3.6
				c-1.9,1.8-2.8,6.3-2.8,12.6v80.2c0,6.3,0.9,10.8,2.8,12.6c1.9,1.8,6.6,2.7,13.1,3.6v3.6h-52.6v-3.6c7.5-0.9,12.2-1.8,14.1-3.6
				s2.8-6.3,2.8-14.4v-35.1h-57.3v36.9c0,6.3,0.9,10.8,2.8,12.6c1.9,1.8,6.6,2.7,13.1,3.6v3.6H777.3L777.3,637.7z"/>
			<path id="Shape" class="st0" d="M961.3,569.2c1.9,2.7,2.8,7.2,3.8,13.5h-38.5c0.9-4.5,1.9-9,4.7-11.7c3.8-6.3,9.4-9,16-9
				C952.8,561.1,957.5,563.8,961.3,569.2 M922.8,567.4c-7.5,9-11.3,18.9-11.3,30.6c0,10.8,2.8,20.7,9.4,28.8
				c6.6,8.1,15,12.6,26.3,12.6c10.3,0,18.8-3.6,25.3-9.9c6.6-6.3,11.3-13.5,14.1-20.7l-2.8-0.9c-3.8,6.3-7.5,10.8-12.2,13.5
				c-4.7,3.6-9.4,4.5-16,4.5c-7.5,0-15-2.7-20.7-9s-9.4-16.2-9.4-29.7h58.2c0-10.8-2.8-18.9-9.4-24.3c-6.6-5.4-14.1-9-22.5-9
				C939.7,554.8,930.3,559.3,922.8,567.4"/>
			<path id="Shape_00000100355621312939800790000014379100515964797842_" class="st0" d="M1040.1,625.1c-3.8,1.8-7.5,3.6-11.3,3.6
				c-2.8,0-5.6-0.9-8.4-2.7c-3.8-2.7-5.6-6.3-5.6-11.7c0-6.3,4.7-12.6,13.1-18c4.7-2.7,10.3-5.4,17.8-7.2V617
				C1045.8,619.7,1043.9,622.4,1040.1,625.1 M1004.5,633.2c3.8,3.6,8.4,5.4,14.1,5.4c4.7,0,10.3-1.8,16-4.5c3.8-1.8,7.5-4.5,12.2-9
				c0,3.6,0.9,6.3,2.8,9c1.9,2.7,4.7,3.6,9.4,3.6c3.8,0,7.5-0.9,10.3-3.6c1.9-1.8,4.7-3.6,6.6-5.4v-4.5c-1.9,1.8-3.8,2.7-4.7,2.7
				c-0.9,0-1.9,0.9-3.8,0.9c-2.8,0-3.8-0.9-4.7-3.6c-0.9-0.9-0.9-3.6-0.9-7.2v-35.1c0-8.1-0.9-13.5-3.8-18
				c-3.8-7.2-12.2-10.8-24.4-10.8c-10.3,0-17.8,2.7-23.5,7.2s-7.5,9-7.5,12.6c0,1.8,0.9,3.6,1.9,5.4c1.9,1.8,3.8,2.7,6.6,2.7
				c1.9,0,3.8,0,4.7-0.9c1.9-0.9,3.8-3.6,3.8-7.2c0-0.9,0-1.8,0-3.6s0-2.7,0-3.6c0-2.7,0.9-4.5,3.8-6.3c2.8-1.8,5.6-2.7,9.4-2.7
				c6.6,0,11.3,1.8,13.1,6.3c0.9,2.7,1.9,6.3,1.9,12.6v7.2c-16.9,6.3-28.2,10.8-33.8,14.4c-8.4,5.4-13.1,12.6-13.1,21.6
				C998.8,625.1,1000.7,629.6,1004.5,633.2"/>
			<path id="Path_00000022544509781090029120000000113333645687244204_" class="st0" d="M1081.4,637.7V635c5.6-0.9,9.4-1.8,11.3-3.6
				c1.9-1.8,2.8-5.4,2.8-9.9v-85.6c0-3.6,0-6.3-0.9-8.1c-0.9-2.7-3.8-3.6-7.5-3.6c-0.9,0-1.9,0-2.8,0s-1.9,0-3.8,0.9v-2.7
				c8.4-1.8,17.8-4.5,30-8.1c0,0,0.9,0,0.9,0.9c0,0,0,0.9,0,2.7v106.3c0,5.4,0.9,8.1,2.8,9.9s5.6,2.7,11.3,2.7v2.7h-44.1V637.7
				L1081.4,637.7z"/>
			<path id="Path_00000005255656343892635000000010978338193731900812_" class="st0" d="M1158.4,555.7h18.8v6.3h-18.8v50.5
				c0,4.5,0,8.1,0.9,9.9c1.9,4.5,4.7,6.3,8.4,6.3c1.9,0,3.8-0.9,5.6-1.8c1.9-0.9,3.8-2.7,5.6-4.5l2.8,1.8l-1.9,2.7
				c-2.8,4.5-6.6,7.2-10.3,9c-3.8,1.8-6.6,2.7-10.3,2.7c-7.5,0-12.2-2.7-15-9c-0.9-3.6-1.9-8.1-1.9-13.5v-53.2h-9.4
				c0,0-0.9,0-0.9-0.9c0,0,0,0,0-0.9c0-0.9,0-0.9,0-1.8c0,0,0.9-0.9,2.8-2.7c4.7-3.6,7.5-6.3,9.4-8.1c1.9-1.8,6.6-7.2,13.1-16.2
				c0.9,0,0.9,0,1.9,0v0.9L1158.4,555.7L1158.4,555.7z"/>
			<path id="Path_00000052800489786366326170000005320505814039467146_" class="st0" d="M1185.6,637.7V635c4.7-0.9,8.4-1.8,10.3-3.6
				c1.9-1.8,1.9-5.4,1.9-12.6v-84.7c0-3.6,0-5.4-0.9-7.2c-0.9-1.8-2.8-2.7-6.6-2.7c-0.9,0-0.9,0-1.9,0c-0.9,0-0.9,0-1.9,0v-3.6
				c2.8-0.9,5.6-1.8,10.3-2.7c3.8-0.9,6.6-1.8,8.4-2.7l8.4-2.7v0.9v54.1c3.8-4.5,7.5-7.2,10.3-9c5.6-3.6,11.3-5.4,17.8-5.4
				c10.3,0,16.9,3.6,20.7,11.7c1.9,4.5,2.8,9.9,2.8,17.1v36c0,6.3,0.9,9.9,1.9,12.6c1.9,1.8,4.7,2.7,9.4,3.6v2.7h-39.4V635
				c5.6-0.9,8.4-1.8,10.3-3.6c1.9-1.8,1.9-5.4,1.9-12.6v-36c0-5.4-0.9-9.9-2.8-13.5c-1.9-3.6-5.6-5.4-11.3-5.4
				c-4.7,0-9.4,1.8-14.1,4.5c-4.7,3.6-6.6,5.4-6.6,6.3v43.3c0,6.3,0.9,10.8,2.8,12.6c1.9,1.8,4.7,2.7,10.3,3.6v2.7h-42.2V637.7
				L1185.6,637.7z"/>
			<path id="Shape_00000142861396698171382490000007487190911626568328_" class="st0" d="M1298.3,621.5c0-9,6.6-15.3,16-15.3
				c8.4,0,15,6.3,15,15.3s-6.6,15.3-15,15.3C1304.9,636.8,1298.3,629.6,1298.3,621.5 M1314.3,639.5c10.3,0,19.7-8.1,19.7-18
				c0-10.8-8.4-18-19.7-18c-10.3,0-19.7,8.1-19.7,18C1294.5,631.4,1303,639.5,1314.3,639.5 M1309.6,622.4h3.8l5.6,9h3.8l-6.6-9
				c2.8,0,5.6-1.8,5.6-5.4c0-4.5-2.8-6.3-7.5-6.3h-8.4v20.7h3.8V622.4z M1309.6,619.7v-6.3h4.7c1.9,0,4.7,0.9,4.7,2.7
				c0,3.6-2.8,3.6-5.6,3.6H1309.6L1309.6,619.7z"/>
			<path id="Path_00000060727681883093538970000013170125578339734933_" class="st1" d="M944.4,337.6h-8.4
				c-5.6-30.6-34.7-41.5-63.8-41.5c-31.9,0-63.8,22.5-63.8,63.1c0,39.6,26.3,75.7,68.5,75.7c17.8,0,46-9,67.6-37.8v25.2
				C919,438.6,895.6,444,869.3,444c-84.5,0-96.7-56.8-96.7-80.2c0-34.2,28.2-76.6,103.3-76.6c15,0,45.1,3.6,67.6,11.7v38.7H944.4
				L944.4,337.6z"/>
			<path id="Path_00000052074174794537963930000004598041861920141205_" class="st1" d="M961.3,429.6c14.1,0,17.8-4.5,17.8-15.3
				v-93.7c0-10.8-3.8-15.3-17.8-15.3v-5.4h63.8v5.4c-14.1,0-17.8,4.5-17.8,15.3v38.7h82.6v-38.7c0-10.8-3.8-15.3-17.8-15.3v-5.4
				h63.8v5.4c-14.1,0-17.8,4.5-17.8,15.3v93.7c0,10.8,3.8,15.3,17.8,15.3v5.4h-63.8v-5.4c14.1,0,17.8-4.5,17.8-15.3v-46.9h-82.6
				v46.9c0,10.8,3.8,15.3,17.8,15.3v5.4h-63.8V429.6L961.3,429.6z"/>
			<path id="Shape_00000081617016631927773620000014199940983547939248_" class="st1" d="M1359.3,305.2v-5.4h-63.8v5.4
				c14.1,0,17.8,4.5,17.8,15.3v93.7c-0.9,8.1-6.6,13.5-14.1,14.4c-10.3-1.8-22.5-9.9-33.8-25.2l-23.5-35.1c21.6-5.4,31-20.7,31-33.3
				c0-18.9-12.2-35.1-50.7-35.1c-14.1,0-60.1,0-70.4,0v5.4c14.1,0,17.8,4.5,17.8,15.3v93.7c0,10.8-3.8,15.3-17.8,15.3v5.4h63.8v-5.4
				c-14.1,0-17.8-4.5-17.8-15.3v-42.4c15,0,17.8-0.9,27.2,16.2l8.4,16.2c12.2,22.5,24.4,31.5,53.5,31.5c0.9,0,3.8,0,8.4,0
				c23.5,0,63.8,0,63.8,0v-5.4c-14.1,0-17.8-4.5-17.8-15.3v-93.7C1341.5,309.7,1345.2,305.2,1359.3,305.2 M1211.9,366.5
				c-4.7,0-10.3-0.9-14.1-0.9v-59.5c2.8-0.9,5.6-0.9,9.4-0.9c28.2,0,36.6,20.7,36.6,35.1C1243.9,358.4,1231.6,366.5,1211.9,366.5"/>
			<path id="Path_00000172414296528011209310000015772816611850489510_" class="st1" d="M1721.7,299.8v5.4c15,0,17.8,5.4,17.8,16.2
				l0.9,27.9c0,8.1,0,16.2,0,27c0,33.3-13.1,55-48.8,55c-23.5,0-43.2-15.3-43.2-44.2v-65.8c0-10.8,3.8-15.3,16.9-15.3v-5.4H1472
				c-11.3-1.8-23.5-2.7-32.9-2.7c-48.8,0-55.4,29.7-55.4,39.6c0,42.4,79.8,40.5,79.8,71.2c0,10.8-10.3,22.5-31.9,22.5
				c-15,0-36.6-9.9-42.2-32.4h-7.5v33.3c16,3.6,34.7,6.3,48.8,6.3c36.6,0,55.4-18,55.4-40.5c0-42.4-81.7-45.1-81.7-73
				c0-9.9,10.3-21.6,28.2-20.7c42.2,2.7,39.4,32.4,39.4,32.4h8.4c0,0-5.6-27,30-27.9h25.3v105.4c0,10.8-3.8,15.3-17.8,15.3v5.4h63.8
				v-5.4c-14.1,0-17.8-4.5-17.8-15.3V308.8h29.1c16,0,27.2,3.6,30,23.4v49.6c0,40.5,29.1,55.9,68.5,55.9c46,0,58.2-27.9,59.1-55.9
				l0.9-61.3c0-10.8,3.8-15.3,16.9-15.3v-5.4H1721.7L1721.7,299.8z"/>
			<path id="Path_00000138564723682927358150000018235161323412513445_" class="st1" d="M1776.2,398.9h7.5
				c5.6,22.5,27.2,32.4,42.2,32.4c21.6,0,31.9-11.7,31.9-22.5c0-30.6-79.8-28.8-79.8-71.2c0-9.9,6.6-39.6,55.4-39.6
				c12.2,0,29.1,0.9,41.3,5.4v34.2h-7.5c-2.8-19.8-16.9-31.5-40.4-31.5c-17.8,0-28.2,9.9-28.2,20.7c0,27.9,81.7,30.6,81.7,73
				c0,22.5-18.8,40.5-55.4,40.5c-14.1,0-32.9-2.7-48.8-6.3V398.9L1776.2,398.9z"/>
			<path id="Path_00000111185294031067872450000010355529753916780213_" class="st1" d="M301.3,428.7c76,0,145.5-29.7,196.2-78.4
				V233.1H325.7v122.5H198v54.1C229.9,421.4,264.7,428.7,301.3,428.7"/>
			<path id="Path_00000007401558458432911950000012466090679298170810_" class="st1" d="M496.6,355.7C460,442.2,378.3,498,276.9,498
				c-28.2,0-55.4-4.5-79.8-13.5v34.2h128.6v122.5h170.9V518.8h127.7V355.7H496.6z"/>
			<path id="Path_00000000902483307576832900000014422659934296072068_" class="st2" d="M491.9,355.7
				c-25.3-10.8-52.6-16.2-80.7-16.2c-30,0-59.1,6.3-85.4,17.1v72.1C389.5,422.3,447.7,396.2,491.9,355.7"/>
			<path id="Path_00000108271957785803340380000012217410222020218288_" class="st2" d="M495.6,357.5c-9.4,20.7-20.7,40.5-34.7,56.8
				c69.5,9,128.6,48.7,162.4,104.5C617.7,454.8,566,389,495.6,357.5"/>
			<path id="Path_00000078748331172258459020000012115614388323931264_" class="st2" d="M198,519.7c34.7,68.5,109.8,92.8,191.5,92.8
				c38.5,0,76-8.1,107-23.4v77.5c-28.2,10.8-60.1,16.2-92.9,16.2C285.3,683.7,208.4,614.3,198,519.7L198,519.7z"/>
			<path id="Path_00000176737813305121712850000006037643475347521435_" class="st2" d="M496.6,356.6c46-48.7,109.8-79.3,180.3-79.3
				c33.8,0,65.7,7.2,95.8,19.8v-77.5c-22.5-9-47.9-13.5-73.2-13.5c-91.1,0-169.9,60.4-201.8,145.1L496.6,356.6L496.6,356.6z"/>
		</g>
	</g>
</g>
</svg>
