<?xml version="1.0" encoding="utf-8"?>
<!-- Generator: Adobe Illustrator 28.0.0, SVG Export Plug-In . SVG Version: 6.00 Build 0)  -->
<svg version="1.1" id="Layer_1" xmlns="http://www.w3.org/2000/svg" xmlns:xlink="http://www.w3.org/1999/xlink" x="0px" y="0px"
	 viewBox="0 0 860.38 521.8" style="enable-background:new 0 0 860.38 521.8;" xml:space="preserve">
<style type="text/css">
	.st0{fill:#FFFFFF;stroke:#000000;stroke-miterlimit:10;}
	.st1{fill:#FFFFFF;}
	.st2{fill:#BA2334;}
	.st3{fill:none;stroke:#000000;stroke-miterlimit:10;}
</style>
<rect class="st0" width="860.38" height="521.8"/>
<g>
	<g>
		<g>
			<path class="st1" d="M340.86,139.76c1.28,0,1.86,0.7,1.86,1.86v11.65c0,1.16-0.58,1.86-1.86,1.86h-13.51v75.94
				c0,1.28-0.58,1.86-1.87,1.86h-12.11c-1.17,0-1.87-0.58-1.87-1.86v-75.94H298c-1.16,0-1.86-0.7-1.86-1.86v-11.65
				c0-1.16,0.7-1.86,1.86-1.86H340.86z"/>
			<path class="st1" d="M382.79,141.63c0-1.16,0.7-1.86,1.86-1.86h12c1.4,0,1.98,0.7,1.98,1.86v89.46c0,1.16-0.58,1.86-1.98,1.86
				h-12c-1.16,0-1.86-0.7-1.86-1.86v-37.04h-14.91v37.04c0,1.16-0.7,1.86-1.87,1.86h-11.99c-1.4,0-1.98-0.7-1.98-1.86v-89.46
				c0-1.16,0.58-1.86,1.98-1.86h11.99c1.17,0,1.87,0.7,1.87,1.86v37.04h14.91V141.63z"/>
			<path class="st1" d="M459.08,153.28c0,1.16-0.47,1.98-1.87,1.98H428.1v23.29h22.25c1.17,0,1.87,0.7,1.87,1.98v11.53
				c0,1.28-0.7,1.98-1.87,1.98H428.1v23.53h29.12c1.4,0,1.87,0.58,1.87,1.86v11.65c0,1.16-0.47,1.86-1.87,1.86h-42.86
				c-1.05,0-1.75-0.7-1.75-1.86v-89.46c0-1.16,0.7-1.86,1.75-1.86h42.86c1.4,0,1.87,0.7,1.87,1.86V153.28z"/>
		</g>
		<g>
			<path class="st1" d="M367.3,277.11c0,1.4-0.84,2.24-2.23,2.24H330.4v28.09h26.28c1.4,0,2.23,0.84,2.23,2.24v13.97
				c0,1.54-0.84,2.24-2.23,2.24H330.4v44.58c0,1.4-0.84,2.24-2.23,2.24h-14.54c-1.53,0-2.24-0.84-2.24-2.24V263.13
				c0-1.4,0.7-2.24,2.24-2.24h51.43c1.39,0,2.23,0.84,2.23,2.24V277.11z"/>
			<path class="st1" d="M374.29,281.02c0-13.14,6.99-20.12,20.12-20.12h15.65c13.14,0,20.12,6.99,20.12,20.12v71.56
				c0,13.13-6.98,20.12-20.12,20.12h-15.65c-13.13,0-20.12-6.99-20.12-20.12V281.02z M406.58,354.68c3.63,0,5.59-1.82,5.59-5.59
				v-64.56c0-3.63-1.96-5.59-5.59-5.59h-8.11c-3.63,0-5.59,1.96-5.59,5.59v64.56c0,3.78,1.95,5.59,5.59,5.59H406.58z"/>
			<path class="st1" d="M497.28,260.9c1.54,0,2.79,1.26,2.79,2.8v88.88c0,13.13-6.99,20.12-20.12,20.12H464.3
				c-13.13,0-20.12-6.99-20.12-20.12V263.7c0-1.54,1.26-2.8,2.8-2.8h13.42c1.53,0,2.79,1.26,2.79,2.8v84.97
				c0,3.77,1.96,5.59,5.59,5.59h7.27c3.63,0,5.59-1.82,5.59-5.59V263.7c0-1.54,1.26-2.8,2.79-2.8H497.28z"/>
			<path class="st1" d="M571.49,260.9c1.4,0,2.24,0.84,2.24,2.24v107.33c0,1.4-0.84,2.24-2.24,2.24h-13.84
				c-1.26,0-2.1-0.56-2.52-1.82l-21.38-59.67h-0.7v59.26c0,1.4-0.7,2.24-2.24,2.24h-14.53c-1.4,0-2.24-0.84-2.24-2.24V263.13
				c0-1.4,0.84-2.24,2.24-2.24h13.83c1.26,0,2.1,0.56,2.52,1.82l21.25,59.39h0.84v-58.98c0-1.4,0.7-2.24,2.23-2.24H571.49z"/>
			<path class="st1" d="M587.7,263.13c0-1.4,0.7-2.24,2.23-2.24h33.54c13.14,0,20.12,7.13,20.12,20.26v71.42
				c0,13.13-6.99,20.12-20.12,20.12h-33.54c-1.53,0-2.23-0.7-2.23-2.24V263.13z M619.57,354.26c3.63,0,5.59-1.82,5.59-5.59v-63.59
				c0-3.77-1.96-5.73-5.59-5.73h-12.86v74.91H619.57z"/>
			<path class="st1" d="M715.02,315.12c0,9.36-3.49,15.51-10.2,18.45l9.64,36.61c0.42,1.68-0.42,2.52-1.95,2.52h-14.54
				c-1.4,0-2.1-0.7-2.38-1.96l-9.37-35.5h-9.65v35.22c0,1.4-0.84,2.24-2.23,2.24h-14.53c-1.4,0-2.24-0.84-2.24-2.24V263.13
				c0-1.4,0.84-2.24,2.24-2.24h35.08c13.13,0,20.12,6.99,20.12,20.12V315.12z M690.43,316.8c3.63,0,5.59-1.96,5.59-5.59v-26.28
				c0-3.63-1.96-5.59-5.59-5.59h-13.84v37.45H690.43z"/>
			<path class="st1" d="M788.82,260.9c2.1,0,3.07,1.26,2.23,3.21l-25.57,62.19v43.6c0,1.82-0.98,2.8-2.79,2.8h-13.42
				c-1.82,0-2.79-0.98-2.79-2.8v-43.6l-25.58-62.19c-0.84-1.96,0.14-3.21,2.24-3.21h13.98c1.68,0,2.66,0.7,3.21,2.24l15.65,40.11
				l15.65-40.11c0.56-1.54,1.54-2.24,3.22-2.24H788.82z"/>
		</g>
	</g>
	<g>
		<g>
			<path class="st2" d="M340.86,139.76c1.28,0,1.86,0.7,1.86,1.86v11.65c0,1.16-0.58,1.86-1.86,1.86h-13.51v75.94
				c0,1.28-0.58,1.86-1.87,1.86h-12.11c-1.17,0-1.87-0.58-1.87-1.86v-75.94H298c-1.16,0-1.86-0.7-1.86-1.86v-11.65
				c0-1.16,0.7-1.86,1.86-1.86H340.86z"/>
			<path class="st2" d="M382.79,141.63c0-1.16,0.7-1.86,1.86-1.86h12c1.4,0,1.98,0.7,1.98,1.86v89.46c0,1.16-0.58,1.86-1.98,1.86
				h-12c-1.16,0-1.86-0.7-1.86-1.86v-37.04h-14.91v37.04c0,1.16-0.7,1.86-1.87,1.86h-11.99c-1.4,0-1.98-0.7-1.98-1.86v-89.46
				c0-1.16,0.58-1.86,1.98-1.86h11.99c1.17,0,1.87,0.7,1.87,1.86v37.04h14.91V141.63z"/>
			<path class="st2" d="M459.08,153.28c0,1.16-0.47,1.98-1.87,1.98H428.1v23.29h22.25c1.17,0,1.87,0.7,1.87,1.98v11.53
				c0,1.28-0.7,1.98-1.87,1.98H428.1v23.53h29.12c1.4,0,1.87,0.58,1.87,1.86v11.65c0,1.16-0.47,1.86-1.87,1.86h-42.86
				c-1.05,0-1.75-0.7-1.75-1.86v-89.46c0-1.16,0.7-1.86,1.75-1.86h42.86c1.4,0,1.87,0.7,1.87,1.86V153.28z"/>
		</g>
		<g>
			<path class="st2" d="M367.3,277.11c0,1.4-0.84,2.24-2.23,2.24H330.4v28.09h26.28c1.4,0,2.23,0.84,2.23,2.24v13.97
				c0,1.54-0.84,2.24-2.23,2.24H330.4v44.58c0,1.4-0.84,2.24-2.23,2.24h-14.54c-1.53,0-2.24-0.84-2.24-2.24V263.13
				c0-1.4,0.7-2.24,2.24-2.24h51.43c1.39,0,2.23,0.84,2.23,2.24V277.11z"/>
			<path class="st2" d="M374.29,281.02c0-13.14,6.99-20.12,20.12-20.12h15.65c13.14,0,20.12,6.99,20.12,20.12v71.56
				c0,13.13-6.98,20.12-20.12,20.12h-15.65c-13.13,0-20.12-6.99-20.12-20.12V281.02z M406.58,354.68c3.63,0,5.59-1.82,5.59-5.59
				v-64.56c0-3.63-1.96-5.59-5.59-5.59h-8.11c-3.63,0-5.59,1.96-5.59,5.59v64.56c0,3.78,1.95,5.59,5.59,5.59H406.58z"/>
			<path class="st2" d="M497.28,260.9c1.54,0,2.79,1.26,2.79,2.8v88.88c0,13.13-6.99,20.12-20.12,20.12H464.3
				c-13.13,0-20.12-6.99-20.12-20.12V263.7c0-1.54,1.26-2.8,2.8-2.8h13.42c1.53,0,2.79,1.26,2.79,2.8v84.97
				c0,3.77,1.96,5.59,5.59,5.59h7.27c3.63,0,5.59-1.82,5.59-5.59V263.7c0-1.54,1.26-2.8,2.79-2.8H497.28z"/>
			<path class="st2" d="M571.49,260.9c1.4,0,2.24,0.84,2.24,2.24v107.33c0,1.4-0.84,2.24-2.24,2.24h-13.84
				c-1.26,0-2.1-0.56-2.52-1.82l-21.38-59.67h-0.7v59.26c0,1.4-0.7,2.24-2.24,2.24h-14.53c-1.4,0-2.24-0.84-2.24-2.24V263.13
				c0-1.4,0.84-2.24,2.24-2.24h13.83c1.26,0,2.1,0.56,2.52,1.82l21.25,59.39h0.84v-58.98c0-1.4,0.7-2.24,2.23-2.24H571.49z"/>
			<path class="st2" d="M587.7,263.13c0-1.4,0.7-2.24,2.23-2.24h33.54c13.14,0,20.12,7.13,20.12,20.26v71.42
				c0,13.13-6.99,20.12-20.12,20.12h-33.54c-1.53,0-2.23-0.7-2.23-2.24V263.13z M619.57,354.26c3.63,0,5.59-1.82,5.59-5.59v-63.59
				c0-3.77-1.96-5.73-5.59-5.73h-12.86v74.91H619.57z"/>
			<path class="st2" d="M715.02,315.12c0,9.36-3.49,15.51-10.2,18.45l9.64,36.61c0.42,1.68-0.42,2.52-1.95,2.52h-14.54
				c-1.4,0-2.1-0.7-2.38-1.96l-9.37-35.5h-9.65v35.22c0,1.4-0.84,2.24-2.23,2.24h-14.53c-1.4,0-2.24-0.84-2.24-2.24V263.13
				c0-1.4,0.84-2.24,2.24-2.24h35.08c13.13,0,20.12,6.99,20.12,20.12V315.12z M690.43,316.8c3.63,0,5.59-1.96,5.59-5.59v-26.28
				c0-3.63-1.96-5.59-5.59-5.59h-13.84v37.45H690.43z"/>
			<path class="st2" d="M788.82,260.9c2.1,0,3.07,1.26,2.23,3.21l-25.57,62.19v43.6c0,1.82-0.98,2.8-2.79,2.8h-13.42
				c-1.82,0-2.79-0.98-2.79-2.8v-43.6l-25.58-62.19c-0.84-1.96,0.14-3.21,2.24-3.21h13.98c1.68,0,2.66,0.7,3.21,2.24l15.65,40.11
				l15.65-40.11c0.56-1.54,1.54-2.24,3.22-2.24H788.82z"/>
		</g>
	</g>
	<g>
		<g>
			<path class="st3" d="M340.86,139.76c1.28,0,1.86,0.7,1.86,1.86v11.65c0,1.16-0.58,1.86-1.86,1.86h-13.51v75.94
				c0,1.28-0.58,1.86-1.87,1.86h-12.11c-1.17,0-1.87-0.58-1.87-1.86v-75.94H298c-1.16,0-1.86-0.7-1.86-1.86v-11.65
				c0-1.16,0.7-1.86,1.86-1.86H340.86z"/>
			<path class="st3" d="M382.79,141.63c0-1.16,0.7-1.86,1.86-1.86h12c1.4,0,1.98,0.7,1.98,1.86v89.46c0,1.16-0.58,1.86-1.98,1.86
				h-12c-1.16,0-1.86-0.7-1.86-1.86v-37.04h-14.91v37.04c0,1.16-0.7,1.86-1.87,1.86h-11.99c-1.4,0-1.98-0.7-1.98-1.86v-89.46
				c0-1.16,0.58-1.86,1.98-1.86h11.99c1.17,0,1.87,0.7,1.87,1.86v37.04h14.91V141.63z"/>
			<path class="st3" d="M459.08,153.28c0,1.16-0.47,1.98-1.87,1.98H428.1v23.29h22.25c1.17,0,1.87,0.7,1.87,1.98v11.53
				c0,1.28-0.7,1.98-1.87,1.98H428.1v23.53h29.12c1.4,0,1.87,0.58,1.87,1.86v11.65c0,1.16-0.47,1.86-1.87,1.86h-42.86
				c-1.05,0-1.75-0.7-1.75-1.86v-89.46c0-1.16,0.7-1.86,1.75-1.86h42.86c1.4,0,1.87,0.7,1.87,1.86V153.28z"/>
		</g>
		<g>
			<path class="st3" d="M367.3,277.11c0,1.4-0.84,2.24-2.23,2.24H330.4v28.09h26.28c1.4,0,2.23,0.84,2.23,2.24v13.97
				c0,1.54-0.84,2.24-2.23,2.24H330.4v44.58c0,1.4-0.84,2.24-2.23,2.24h-14.54c-1.53,0-2.24-0.84-2.24-2.24V263.13
				c0-1.4,0.7-2.24,2.24-2.24h51.43c1.39,0,2.23,0.84,2.23,2.24V277.11z"/>
			<path class="st3" d="M374.29,281.02c0-13.14,6.99-20.12,20.12-20.12h15.65c13.14,0,20.12,6.99,20.12,20.12v71.56
				c0,13.13-6.98,20.12-20.12,20.12h-15.65c-13.13,0-20.12-6.99-20.12-20.12V281.02z M406.58,354.68c3.63,0,5.59-1.82,5.59-5.59
				v-64.56c0-3.63-1.96-5.59-5.59-5.59h-8.11c-3.63,0-5.59,1.96-5.59,5.59v64.56c0,3.78,1.95,5.59,5.59,5.59H406.58z"/>
			<path class="st3" d="M497.28,260.9c1.54,0,2.79,1.26,2.79,2.8v88.88c0,13.13-6.99,20.12-20.12,20.12H464.3
				c-13.13,0-20.12-6.99-20.12-20.12V263.7c0-1.54,1.26-2.8,2.8-2.8h13.42c1.53,0,2.79,1.26,2.79,2.8v84.97
				c0,3.77,1.96,5.59,5.59,5.59h7.27c3.63,0,5.59-1.82,5.59-5.59V263.7c0-1.54,1.26-2.8,2.79-2.8H497.28z"/>
			<path class="st3" d="M571.49,260.9c1.4,0,2.24,0.84,2.24,2.24v107.33c0,1.4-0.84,2.24-2.24,2.24h-13.84
				c-1.26,0-2.1-0.56-2.52-1.82l-21.38-59.67h-0.7v59.26c0,1.4-0.7,2.24-2.24,2.24h-14.53c-1.4,0-2.24-0.84-2.24-2.24V263.13
				c0-1.4,0.84-2.24,2.24-2.24h13.83c1.26,0,2.1,0.56,2.52,1.82l21.25,59.39h0.84v-58.98c0-1.4,0.7-2.24,2.23-2.24H571.49z"/>
			<path class="st3" d="M587.7,263.13c0-1.4,0.7-2.24,2.23-2.24h33.54c13.14,0,20.12,7.13,20.12,20.26v71.42
				c0,13.13-6.99,20.12-20.12,20.12h-33.54c-1.53,0-2.23-0.7-2.23-2.24V263.13z M619.57,354.26c3.63,0,5.59-1.82,5.59-5.59v-63.59
				c0-3.77-1.96-5.73-5.59-5.73h-12.86v74.91H619.57z"/>
			<path class="st3" d="M715.02,315.12c0,9.36-3.49,15.51-10.2,18.45l9.64,36.61c0.42,1.68-0.42,2.52-1.95,2.52h-14.54
				c-1.4,0-2.1-0.7-2.38-1.96l-9.37-35.5h-9.65v35.22c0,1.4-0.84,2.24-2.23,2.24h-14.53c-1.4,0-2.24-0.84-2.24-2.24V263.13
				c0-1.4,0.84-2.24,2.24-2.24h35.08c13.13,0,20.12,6.99,20.12,20.12V315.12z M690.43,316.8c3.63,0,5.59-1.96,5.59-5.59v-26.28
				c0-3.63-1.96-5.59-5.59-5.59h-13.84v37.45H690.43z"/>
			<path class="st3" d="M788.82,260.9c2.1,0,3.07,1.26,2.23,3.21l-25.57,62.19v43.6c0,1.82-0.98,2.8-2.79,2.8h-13.42
				c-1.82,0-2.79-0.98-2.79-2.8v-43.6l-25.58-62.19c-0.84-1.96,0.14-3.21,2.24-3.21h13.98c1.68,0,2.66,0.7,3.21,2.24l15.65,40.11
				l15.65-40.11c0.56-1.54,1.54-2.24,3.22-2.24H788.82z"/>
		</g>
	</g>
</g>
<path class="st2" d="M174.32,140.15c-0.9-0.51-2.35-0.51-3.24,0l-98.1,56.64c-0.89,0.52-1.62,1.78-1.62,2.81v113.27
	c0,1.03,0.73,2.29,1.62,2.81l98.1,56.64c0.89,0.51,2.35,0.51,3.24,0l98.1-56.64c0.89-0.51,1.62-1.78,1.62-2.81V199.6
	c0-1.03-0.73-2.29-1.62-2.81L174.32,140.15z M204.19,310.8c-29.82,17.21-68.08,6.75-85.48-23.39
	c-17.39-30.14-7.33-68.51,22.48-85.73c29.82-17.21,68.09-6.74,85.49,23.39C244.07,255.2,234.01,293.59,204.19,310.8z"/>
</svg>
