<?xml version="1.0" encoding="utf-8"?>
<!-- Generator: Adobe Illustrator 28.0.0, SVG Export Plug-In . SVG Version: 6.00 Build 0)  -->
<svg version="1.1" id="Layer_1" xmlns="http://www.w3.org/2000/svg" xmlns:xlink="http://www.w3.org/1999/xlink" x="0px" y="0px"
	 viewBox="0 0 1347.8 748.4" style="enable-background:new 0 0 1347.8 748.4;" xml:space="preserve">
<style type="text/css">
	.st0{fill:#012169;}
</style>
<g>
	<path class="st0" d="M359.7,325.8c-5.1,0-11.2,0.4-17,0.7c-5.8,0.4-11.2,0.7-15.7,0.7c-1.8,0-6.5,0-6.5-3.6c0-2.9,2.6-6.1,13.4-7.8
		c7.8-1.4,16.3-2.6,16.3-23.5V122.3c0-6.9-15.2-6.1-24.6-6.9c-8.3-0.7-10.8-0.7-10.8-4.7c0-6.1,9.8-6.1,14.1-6.1h32.9
		c9,0,17.7-0.7,26.8-1.1s19.5-1.1,31.1-1.1c75.9,0,137.4,37.6,137.4,124.8c0,54.3-49.9,98.7-112.1,98.7L359.7,325.8L359.7,325.8z
		 M381.4,280.7c0,25.3,22.8,36.6,46.3,36.6c28.2,0,95.5-23.5,95.5-96.9c0-74.1-66.6-107.1-111.4-107.1c-29.6,0-30.4,6.5-30.4,11.6
		V280.7z"/>
	<path class="st0" d="M587.7,281.6c0-22.1,0.7-55.7,0.7-77.1c0-5.1-6.2-5.8-10.5-6.9c-8.7-2.2-10.9-2.9-10.9-5.4c0-3.3,4-3.3,9-3.3
		s10.1,0.7,15.7,0.7c5.5,0,10.5-0.7,15.9-0.7c4.7,0,5.4,1.8,5.4,6.9c0,32.2-0.7,64.4-0.7,96.6c0,14.8,10.9,23.2,28.6,23.2
		c40.2,0,43.1-17,43.4-31.9c0-25.7,0.7-51.8,0.7-77.5c0-4.3-1.8-4.3-18.8-8.7c-2.9-0.7-10.5-2.9-10.5-5.8c0-2.2,4-2.9,7.8-2.9
		c6.2,0,12.3,0.7,18.5,0.7c7.2,0,14.1-0.7,21.4-0.7c3.9-0.3,7.3,2.6,7.6,6.5c0,0.4,0,0.7,0,1.1c0,36.6-1.4,73.1-1.4,109.7
		c0,7.6,6.2,8.7,9.4,8.7c14.1,0,18.8,0,18.8,3.6c0,2.9-1.8,3.6-7.2,4.3c-25.3,4-40.2,7.2-43.4,7.2s-2.9-2.6-2.9-5.8v-8.3
		c0-2.9-0.7-4.3-2.6-4.3c-5.8,0-21.4,21.4-50.7,21.4C597.1,332.9,587.7,312.3,587.7,281.6z"/>
	<path class="st0" d="M768.7,120.3c0-19.2-17.7-13.1-17.7-19.9c0-2.6,2.6-3.3,7.6-5.1l24.5-9.4c2-0.6,4.1-0.9,6.1-0.7
		c1.8,0,4,1.1,4,6.5v148.7c0,4,0.7,5.8,3.3,5.8c3.6,0,59-32.5,59-39.2c0-9.4-13.7-9.4-13.7-14.8c0-1.8,2.9-3.6,5.1-3.6
		c7.6,0,18.4,0.7,27.8,0.7s19.9-0.7,27.1-0.7c3.3,0,6.9,0.7,6.9,4.3c0,3.6-12.7,6.5-17.7,8.7c-10.5,4.7-69.8,39.2-69.8,43
		c0.2,2,1.2,3.9,2.9,5.1l62.7,56.8c14.8,13.4,28.6,12.3,28.6,17.4c0,1.8-3.6,3.6-9.4,3.6c-7.6,0-17-1.4-27.8-1.4
		c-9.4,0-18.1,1.4-26.8,1.4c-7.6,0-10.8-0.4-10.8-3.6c0-3.2,4.3-4.3,10.5-5.1c3.6-0.4,6.9-2.6,6.9-5.1c0-1.8-1.8-3.6-4-5.8
		l-54.6-51.6c-0.9-1-2-1.8-3.3-2.2c-1.4,0-2.6,0.4-2.6,1.8v51.4c-0.5,5.2,2.8,10.1,7.8,11.6c5.8,1.8,10.5,1.8,10.5,5.1
		c0,3.3-4.7,3.6-8.3,3.6c-8.7,0-16.3-1.4-24.2-1.4c-8.7,0-19.9,1.4-26.1,1.4c-2.2,0-8.7-0.4-8.7-3.6c0-3.2,2.9-4,6.5-5.1
		c10.1-2.9,17.7-1.8,17.7-17L768.7,120.3z"/>
	<path class="st0" d="M939.1,242.2c-0.7,4.2-1,8.4-0.7,12.7c0,30.4,8.3,60.5,52.5,60.5c27.9,0,28.7-14.5,34.4-14.5
		c1.6-0.2,3.1,1,3.2,2.6c0,0.1,0,0.2,0,0.2c0,2.6-15.2,29-52.9,29c-39.8,0-62.7-28.3-62.7-73.6c0-33.9,20.9-76.4,66-76.4
		c29.4-0.9,54.1,21.7,55.8,51.1c0,6.5-1.1,8.3-7.2,8.3L939.1,242.2L939.1,242.2z M1010.9,213.4c0-12.3-11.6-22.1-26.8-22.1
		c-26.1,0-41.8,25.4-41.8,36.6c0,2.6,0.7,3.3,31.5,3.3C1005.8,231.3,1010.9,226.6,1010.9,213.4L1010.9,213.4L1010.9,213.4z"/>
	<path class="st0" d="M316.4,410.1h715.3v5H316.4L316.4,410.1z"/>
	<path class="st0" d="M354.8,513.1c0,6.1-2,10.7-5.9,13.9c-4,3.2-9.6,4.8-16.9,4.8h-6v21.7h-9.5v-58h16.7c7.2,0,12.7,1.5,16.3,4.4
		C353,503,354.8,507.4,354.8,513.1L354.8,513.1z M325.9,523.9h5c4.9,0,8.4-0.9,10.7-2.5c2.3-1.7,3.4-4.3,3.4-7.9
		c0-3.3-1-5.8-3.1-7.5c-2-1.6-5.2-2.5-9.5-2.5h-6.6L325.9,523.9L325.9,523.9z"/>
	<path class="st0" d="M376.7,530.4v23.2h-9.5v-58h16.4c7.5,0,13,1.4,16.6,4.2s5.4,7,5.4,12.7c0,7.2-3.8,12.4-11.3,15.4l16.4,25.7
		h-10.8L386,530.4L376.7,530.4L376.7,530.4z M376.7,522.6h6.6c4.4,0,7.6-0.8,9.6-2.5c2-1.6,3-4.1,3-7.3c0-3.3-1.1-5.6-3.2-7.1
		c-2.1-1.4-5.4-2.1-9.7-2.1h-6.3V522.6z"/>
	<path class="st0" d="M460.8,553.6l-5.8-16.1h-22.2l-5.7,16.1h-10l21.7-58.2h10.3l21.7,58.2H460.8z M452.5,529.3l-5.4-15.8
		c-0.4-1.1-0.9-2.7-1.6-5c-0.7-2.3-1.2-3.9-1.4-5c-0.7,3.2-1.8,6.8-3.1,10.7l-5.2,15.1L452.5,529.3L452.5,529.3z"/>
	<path class="st0" d="M496.1,553.6h-9.5v-49.9h-17.1v-8.1h43.6v8.1h-17.1L496.1,553.6L496.1,553.6z"/>
	<path class="st0" d="M546.1,553.6h-9.5v-49.9h-17.1v-8.1h43.6v8.1h-17V553.6z"/>
	<path class="st0" d="M634.7,537.9c0,5.2-1.9,9.2-5.6,12.1c-3.7,2.9-8.9,4.4-15.4,4.4s-11.9-1-16.1-3v-9c2.6,1.2,5.5,2.2,8.4,2.9
		c3,0.7,5.8,1.1,8.3,1.1c3.8,0,6.5-0.7,8.3-2.1c1.8-1.4,2.7-3.4,2.7-5.8c0-2.2-0.8-4-2.5-5.5c-1.6-1.5-5-3.3-10.2-5.4
		c-5.3-2.1-9-4.6-11.2-7.3c-2.2-2.8-3.2-6.1-3.2-9.9c0-4.8,1.7-8.6,5.2-11.4s8-4.2,13.8-4.2c5.5,0,11.1,1.2,16.6,3.6l-3,7.7
		c-5.2-2.2-9.8-3.2-13.8-3.2c-3.1,0-5.4,0.7-7,2c-1.6,1.3-2.4,3.1-2.4,5.3c0,1.5,0.3,2.8,1,3.9s1.7,2.1,3.1,3s4.1,2.2,7.9,3.8
		c4.3,1.8,7.4,3.4,9.4,5c2,1.5,3.4,3.3,4.4,5.2C634.3,533,634.7,535.2,634.7,537.9L634.7,537.9z"/>
	<path class="st0" d="M673.1,502.9c-5.5,0-9.7,1.9-12.9,5.8c-3.1,3.9-4.7,9.2-4.7,16c0,7.1,1.5,12.5,4.5,16.1c3,3.6,7.4,5.5,13,5.5
		c2.5,0,4.8-0.2,7.1-0.7c2.3-0.5,4.7-1.1,7.2-1.9v8.1c-4.5,1.7-9.7,2.6-15.5,2.6c-8.5,0-15-2.6-19.6-7.7c-4.5-5.1-6.8-12.5-6.8-22.1
		c0-6,1.1-11.3,3.3-15.8c2.2-4.5,5.4-8,9.6-10.4c4.2-2.4,9.1-3.6,14.7-3.6c5.9,0,11.4,1.2,16.4,3.7l-3.4,7.9c-2-0.9-4-1.7-6.2-2.4
		S675.5,502.9,673.1,502.9z"/>
	<path class="st0" d="M746.4,553.6h-9.5v-26.1h-26.7v26.1h-9.5v-58h9.5v23.7h26.7v-23.7h9.5V553.6z"/>
	<path class="st0" d="M814,524.5c0,9.4-2.4,16.8-7.1,22c-4.7,5.2-11.4,7.9-20,7.9c-8.8,0-15.5-2.6-20.2-7.8s-7-12.6-7-22.1
		s2.4-16.9,7.1-22.1c4.7-5.1,11.5-7.7,20.2-7.7c8.6,0,15.3,2.6,20,7.8C811.7,507.7,814,515.1,814,524.5L814,524.5z M769.7,524.5
		c0,7.1,1.4,12.5,4.3,16.2s7.2,5.5,12.8,5.5c5.6,0,9.9-1.8,12.8-5.5c2.9-3.7,4.3-9.1,4.3-16.3c0-7.1-1.4-12.5-4.3-16.2
		c-2.8-3.7-7.1-5.5-12.7-5.5c-5.7,0-10,1.8-12.9,5.5C771.2,512,769.7,517.4,769.7,524.5z"/>
	<path class="st0" d="M877.1,524.5c0,9.4-2.4,16.8-7.1,22s-11.4,7.9-20,7.9c-8.8,0-15.5-2.6-20.2-7.8s-7-12.6-7-22.1
		s2.4-16.9,7.1-22.1c4.7-5.1,11.5-7.7,20.2-7.7c8.6,0,15.3,2.6,20,7.8C874.8,507.7,877.1,515.1,877.1,524.5L877.1,524.5z
		 M832.9,524.5c0,7.1,1.4,12.5,4.3,16.2s7.2,5.5,12.8,5.5c5.6,0,9.9-1.8,12.8-5.5c2.9-3.7,4.3-9.1,4.3-16.3c0-7.1-1.4-12.5-4.3-16.2
		c-2.8-3.7-7.1-5.5-12.7-5.5c-5.7,0-10,1.8-12.9,5.5C834.3,512,832.9,517.4,832.9,524.5L832.9,524.5z"/>
	<path class="st0" d="M892,553.6v-58h9.5v49.9h24.5v8.1H892z"/>
	<path class="st0" d="M975.8,509.6c5,0,9,1.5,11.9,4.5c2.9,3,4.4,7.1,4.4,12.3c0,5-1,9.7-2.9,14.1c-1.9,4.4-4.5,7.8-7.7,10.2
		c-3.2,2.4-6.9,3.6-11,3.6c-5.1,0-9.1-1.5-11.9-4.5c-2.9-3-4.3-7.1-4.3-12.3c0-5,1-9.8,2.9-14.2s4.5-7.8,7.8-10.2
		C968.2,510.8,971.8,509.6,975.8,509.6L975.8,509.6z M985.2,525.4c0-3-0.8-5.5-2.5-7.4c-1.6-1.9-3.9-2.8-6.7-2.8
		c-2.9,0-5.5,1-7.8,2.9c-2.3,2-4.1,4.7-5.3,8.1s-1.9,7.4-1.9,11.6c0,3.5,0.8,6.1,2.5,8c1.7,1.9,4.1,2.8,7.2,2.8c2.8,0,5.2-1,7.4-2.9
		c2.2-1.9,3.9-4.7,5.1-8.2C984.6,534,985.2,530,985.2,525.4L985.2,525.4z"/>
	<path class="st0" d="M991.8,573.1c-1.8,0-3.5-0.3-5-0.8v-5.6c1.7,0.6,3.2,0.9,4.4,0.9c2,0,3.6-0.8,4.6-2.5c1.1-1.6,2-4,2.6-7
		l9-42.9h-7.7l0.5-2.7l8.2-2.6l0.9-4c1.2-5.3,2.9-9,5.1-11.2c2.2-2.2,5.3-3.3,9.6-3.3c1.1,0,2.3,0.1,3.9,0.5c1.5,0.3,2.7,0.6,3.6,1
		l-1.7,5.1c-2-0.8-3.8-1.1-5.4-1.1c-2.3,0-4.1,0.6-5.3,1.9s-2.2,3.6-3,7l-1,4.3h9.4l-1,5h-9.4l-9.2,43.5c-1,5-2.6,8.6-4.8,11
		C998.1,572,995.3,573.1,991.8,573.1L991.8,573.1z"/>
	<path class="st0" d="M355.2,661.4h-38.8v-68.6h38.8v9.5h-27.6V621h25.8v9.4h-25.8v21.5h27.6V661.4z"/>
	<path class="st0" d="M436.3,661.4h-13.7l-33.7-54.7h-0.4l0.2,3c0.4,5.8,0.7,11.1,0.7,16v35.7h-10.2v-68.6h13.6l33.6,54.4h0.3
		c-0.1-0.7-0.2-3.3-0.4-7.9s-0.3-8-0.3-10.6v-35.9h10.3L436.3,661.4L436.3,661.4z"/>
	<path class="st0" d="M485.8,624.2H511v34.4c-4.1,1.3-8.1,2.3-11.9,2.9c-3.8,0.6-7.9,0.8-12.3,0.8c-10.4,0-18.4-3.1-24-9.2
		s-8.4-14.8-8.4-26c0-11,3.2-19.7,9.5-25.9s15.1-9.4,26.2-9.4c7.2,0,14,1.4,20.4,4.1l-3.9,9.3c-5.6-2.6-11.1-3.8-16.7-3.8
		c-7.3,0-13.1,2.3-17.4,6.9c-4.3,4.6-6.4,10.9-6.4,18.9c0,8.4,1.9,14.8,5.8,19.1c3.8,4.4,9.3,6.5,16.5,6.5c3.6,0,7.5-0.5,11.6-1.4
		v-17.7h-14.2L485.8,624.2L485.8,624.2z"/>
	<path class="st0" d="M538.5,661.4v-68.6h11.2v68.6H538.5z"/>
	<path class="st0" d="M636,661.4h-13.7l-33.7-54.7h-0.4l0.2,3c0.4,5.8,0.7,11.1,0.7,16v35.7h-10.2v-68.6h13.6l33.6,54.4h0.3
		c-0.1-0.7-0.2-3.3-0.4-7.9s-0.3-8-0.3-10.6v-35.9H636L636,661.4L636,661.4z"/>
	<path class="st0" d="M702.1,661.4h-38.8v-68.6h38.8v9.5h-27.6V621h25.9v9.4h-25.9v21.5h27.6V661.4z"/>
	<path class="st0" d="M764.8,661.4H726v-68.6h38.8v9.5h-27.6V621h25.9v9.4h-25.9v21.5h27.6V661.4z"/>
	<path class="st0" d="M798.1,634v27.4h-11.2v-68.6h19.4c8.9,0,15.4,1.7,19.7,5c4.2,3.3,6.4,8.3,6.4,15c0,8.5-4.4,14.6-13.3,18.2
		l19.4,30.3h-12.8L809.1,634L798.1,634z M798.1,624.7h7.8c5.2,0,9-1,11.4-2.9c2.3-1.9,3.5-4.8,3.5-8.6c0-3.9-1.3-6.7-3.8-8.3
		c-2.5-1.7-6.3-2.5-11.5-2.5h-7.4V624.7z"/>
	<path class="st0" d="M859.3,661.4v-68.6h11.2v68.6H859.3z"/>
	<path class="st0" d="M956.8,661.4h-13.7l-33.7-54.7H909l0.2,3c0.4,5.8,0.7,11.1,0.7,16v35.7h-10.2v-68.6h13.6l33.6,54.4h0.3
		c-0.1-0.7-0.2-3.3-0.4-7.9s-0.3-8-0.3-10.6v-35.9h10.3L956.8,661.4L956.8,661.4z"/>
	<path class="st0" d="M1006.3,624.2h25.2v34.4c-4.1,1.3-8.1,2.3-11.9,2.9s-7.9,0.8-12.3,0.8c-10.4,0-18.4-3.1-24-9.2
		s-8.4-14.8-8.4-26c0-11,3.2-19.7,9.5-25.9s15.1-9.4,26.2-9.4c7.2,0,14,1.4,20.4,4.1l-3.9,9.3c-5.6-2.6-11.1-3.8-16.7-3.8
		c-7.3,0-13.1,2.3-17.4,6.9s-6.4,10.9-6.4,18.9c0,8.4,1.9,14.8,5.8,19.1c3.8,4.4,9.3,6.5,16.5,6.5c3.6,0,7.5-0.5,11.6-1.4v-17.7
		h-14.2L1006.3,624.2z"/>
</g>
</svg>
