<?xml version="1.0" encoding="UTF-8"?>
<svg id="Layer_1" data-name="Layer 1" xmlns="http://www.w3.org/2000/svg" viewBox="0 0 10000 10000">
  <defs>
    <style>
      .cls-1 {
        opacity: .97;
      }

      .cls-2 {
        fill: #19244e;
      }

      .cls-2, .cls-3 {
        stroke-width: 0px;
      }

      .cls-3 {
        fill: #161047;
      }
    </style>
  </defs>
  <g>
    <path class="cls-2" d="M2509.89,5027.03l231.39,4.96c8.8-6.49,18.65-14.11,29.47-22.48,25.44-19.68,57.1-44.17,94.44-68.55,145.86-95.23,261.53-161.19,353.63-201.64,76.89-33.77,137.96-50.45,198.04-54.08,159.85-9.65,241.55,54.14,285.44,88.41l3.57,2.79c113.31,88.13,208.95,177.95,267.23,250.56h535.46c37.65,0,74.46,10.5,106.44,30.37,17.96,11.16,33.95,25,47.47,40.96,25.56-388.23,51.31-803.53,76.45-1209.01,34.97-564.09,71.13-1147.38,106.3-1649.76,2.57-36.82,20.23-71.58,48.45-95.33,24.66-20.75,56-32.19,88.26-32.21h.08c32.23,0,63.56,11.4,88.22,32.11,28.25,23.72,45.95,58.47,48.56,95.33,39.77,561.05,78,1219.99,114.98,1857.24,20.62,355.43,41.63,717.48,63.07,1065.42,14.06-32.22,36.12-60.82,63.97-82.45,36.13-28.06,81.23-43.77,126.97-44.24l759.22-7.83c39.83-42.11,71.55-77.97,99.88-109.99,21.24-24.01,39.58-44.74,57.75-64.06,10.19-10.84,20.05-21.36,29.62-31.57,137.88-147.15,228.98-244.36,387.96-307.45,57.72-22.9,103.29-40.99,167.9-36.14,51.71,3.88,101.33,21.33,147.49,51.84,36.19,23.93,70.48,55.9,104.82,97.72,53.5,65.17,100.42,145.21,160.85,251.17,15.15,26.56,30.09,51.43,44.54,75.47,13.13,21.84,25.81,42.95,37.62,63.64,120.12.63,239.92,2.49,356.18,4.29,19.68.31,39.46.61,59.32.92,51.06-218.54,78.08-446.33,78.08-680.43,0-1645.26-1333.74-2979-2979-2979s-2979,1333.74-2979,2979c0,233.76,26.94,461.23,77.86,679.48,221.15,4.52,338.52,4.52,408.14,4.52l2.89.03Z"/>
    <path class="cls-2" d="M7339.53,5259.28c-30.79-18.76-55.82-45.6-72.39-77.61-13.29-25.67-30.65-54.56-50.75-88.01-14.52-24.16-30.98-51.54-47.65-80.78-53.8-94.32-94.97-164.86-135-213.62-25.76-31.38-48.81-50.14-63.36-51.6-7.52,1.53-29.29,10.17-48.57,17.82-102.84,40.81-165.56,107.74-290.52,241.1-9.66,10.31-19.62,20.94-29.91,31.88-15.37,16.35-32.46,35.67-52.25,58.04-31.62,35.74-70.98,80.23-121.28,132.73-20.51,21.4-44.7,38.22-71.92,49.98-27.16,11.74-55.94,17.85-85.53,18.15l-734.57,7.57c-20.62,78.56-41.48,161.7-61.75,242.52-41.45,165.23-84.31,336.08-127.06,475.84-17.69,57.76-70.99,96.38-130.18,96.38-5.1,0-10.23-.29-15.4-.87-65.15-7.38-115.84-60.2-120.53-125.59-34.98-490.56-68.75-1057.42-101.51-1620.18-26.19,418.78-52.7,833.12-78.7,1203.43-2.27,32.38-15.64,63.27-37.64,87-20.06,21.63-45.94,36.33-74.85,42.51-28.91,6.18-58.54,3.34-85.7-8.21-29.78-12.66-54.6-35.4-69.91-64.02l-1.03-1.92-165.42-334.82h-519.54c-68.79,0-134-33.08-174.43-88.49-31.39-43.01-108.82-123.11-232.03-218.94l-3.96-3.09c-15.89-12.41-25.48-19.67-37.58-24.55-15.92-6.42-37.94-8.83-65.44-7.17-69.6,4.2-211.02,75.62-420.33,212.28-28.29,18.47-52.98,37.57-76.85,56.03-19.28,14.91-37.49,29-56.28,41.72-36.31,24.58-78.67,37.57-122.5,37.57l-2.89-.03-248.73-5.33c-61.48,0-159.3-.02-329.53-3,396.86,1178.92,1511.25,2028,2823.97,2028s2428.19-849.9,2824.54-2029.72c-125.33-1.95-254.6-3.9-383.02-4.23-36-.09-71.27-10.04-102-28.77Z"/>
  </g>
  <g class="cls-1">
    <path class="cls-3" d="M2330.4,7948c0,35.78-5.67,69.84-17.02,102.17-11.34,32.34-27.67,59.34-48.97,81-13.06,13.42-27.42,25.81-43.06,37.16s-32.91,20.98-51.8,28.89c-18.91,7.91-39.45,14.11-61.61,18.58-22.17,4.47-47,6.7-74.5,6.7h-101.05v252h-193v-769h298.08c44.34,0,82.59,4.05,114.75,12.12,32.14,8.09,61.28,20.91,87.41,38.44,28.88,19.27,51.23,44.98,67.05,77.14s23.72,70.42,23.72,114.8ZM2131.4,7952.7c0-21.56-5.14-40.12-15.39-55.7s-22.56-26.28-36.92-32.09c-18.12-7.88-35.48-12.41-52.06-13.61-16.59-1.19-39.06-1.8-67.44-1.8h-27.19v229h13.33c18.12,0,35.22-.17,51.3-.52,16.06-.34,30.09-1.53,42.06-3.59,10.25-1.7,21.09-5.03,32.56-10,11.45-4.97,20.25-10.53,26.41-16.7,13-12.66,21.8-25.84,26.42-39.53,4.61-13.69,6.92-32.17,6.92-55.45Z"/>
    <path class="cls-3" d="M2745.48,8490.5c-103.28,0-182.73-24.95-238.33-74.88-55.61-49.92-83.41-122.92-83.41-218.98v-491.14h193v479.53c0,53.34,10.08,93.09,30.25,119.25,20.16,26.16,52.98,39.22,98.48,39.22s77.12-12.55,97.98-37.67c20.84-25.12,31.28-65.39,31.28-120.8v-479.53h193v490.62c0,94.69-27.12,167.42-81.34,218.2s-134.53,76.17-240.92,76.17Z"/>
    <path class="cls-3" d="M3729.36,8474.5h-513v-769h193v622h320v147Z"/>
    <path class="cls-3" d="M4058.66,8488.5c-58.97,0-110.78-5.69-155.44-17.03s-86.12-25.45-124.41-42.31v-182.66h17.61c38.67,32.47,81.33,57.42,127.95,74.86s91.86,26.14,135.72,26.14c11.05,0,25.64-1.19,43.77-3.59,18.12-2.39,32.72-6.16,43.78-11.3,13.47-5.81,24.86-13.94,34.19-24.38,9.31-10.44,13.98-24.2,13.98-41.33,0-19.28-7.59-34.94-22.78-47-15.19-12.05-33.3-20.83-54.34-26.34-26.22-6.88-54.27-13.42-84.11-19.62-29.84-6.19-57.7-13.77-83.58-22.73-59.7-21-102.5-49.23-128.38-84.7s-38.81-79.89-38.81-133.27c0-71.97,30.52-130.25,91.58-174.84s137.3-66.89,228.7-66.89c45.88,0,91.5,4.66,136.86,13.94s85.98,21.84,121.86,37.66v175.41h-17.11c-28.69-24.08-63.67-44.44-104.95-61.06-41.3-16.62-83.72-24.94-127.25-24.94-16.94,0-32.14,1.2-45.61,3.58-13.48,2.38-27.66,6.97-42.5,13.75-12.09,5.44-22.55,13.52-31.36,24.22-8.81,10.72-13.22,22.69-13.22,35.94,0,19.62,6.98,35.22,20.95,46.75s40.98,21.95,81.02,31.25c25.88,5.86,50.8,11.55,74.78,17.05,23.98,5.52,49.61,13.09,76.88,22.72,53.47,19.3,93.23,45.22,119.3,77.75,26.05,32.55,39.08,75.5,39.08,128.88,0,76.45-30.09,137.92-90.27,184.41-60.19,46.48-141.48,69.72-243.89,69.72Z"/>
    <path class="cls-3" d="M4491.85,8474.5v-769h520v147h-327v134h301v147h-301v194h327v147h-520Z"/>
    <path class="cls-3" d="M6237.73,8474.5h-193v-509.84l-139.41,328.84h-131.19l-139.41-328.84v509.84h-182v-769h222.64l169.77,379.44,169.25-379.44h223.34v769Z"/>
    <path class="cls-3" d="M6314.59,8474.5l259.69-769h210.62l259.69,769h-198.44l-47.44-155h-242.5l-47.42,155h-194.2ZM6756.01,8178.5l-78.53-253.52-78.55,253.52h157.08Z"/>
    <path class="cls-3" d="M7268.87,8474.5v-622h-227v-147h647v147h-227v622h-193Z"/>
    <path class="cls-3" d="M7769.69,8474.5v-769h520v147h-327v134h301v147h-301v194h327v147h-520Z"/>
  </g>
</svg>